<svg width="100%" height="100%" id="img" stroke="none" version="1.1" viewBox="0 0 513.1 512.8" xmlns="http://www.w3.org/2000/svg">
	<g transform="translate(-49.63 4.528)">
		<path d="m67.83-4.498c-6.218-0.1737-12.78 0.2255-15.86 6.195-3.218 6.234-1.178 17.11-1.178 23.98v58 209 57.4h-0.7207v125.5h0.009766c-0.7834 11.72-1.111 25.84 5.754 30.36 5.704 3.76 16.39 1.742 22.96 1.742h57 214 63c7.285 0 17.59 2.041 22.26-5.043 5.159-7.827 1.742-25.8 1.742-34.96v-66c0-9.472-2.117-21.88 0.5098-31 4.678-16.25 20.9-33.84 30.14-48 22.28-34.14 44.64-68.37 66.15-103 10.46-16.84 29.16-36.12 29.16-57 0-28.98-33.29-47.84-57.97-32.29-11.42 7.196-17.59 20.25-24.69 31.29-13.52 21-33.47 43.68-42.31 67-4.675-15.82-1-37.49-1-54v-114-42c0-5.434 1.394-13.2-1.742-17.96-4.413-6.693-13.36-5.045-20.26-5.045h-54-226-61c-1.856 0-3.892-0.1218-5.965-0.1797zm2.965 20.18h346v168 51c0 7.706 1.628 17.57-0.5117 25-3.463 12.03-15.03 24.5-21.8 35-21.12 32.79-44.95 62.51-46.69 103-13.35-3.178-22.02 2.64-34 7-1e-3 -5.48-0.2541-10.69-1.746-16-4.482-15.96-19.44-24.02-35.25-18.45-18.57 6.544-34.6 22.42-46.6 37.45-5.359 6.708-15.75 17.8-15.25 27 0.472 8.717 11.62 11.79 17.32 5.771 13.75-14.53 21.46-31.61 38.53-43.73 4.159-2.953 13.21-10.59 18.66-7.123 8.571 5.458 5.63 29.58 4.627 38.08-0.72 6.108-0.4283 13.62 6.721 15.57 9.463 2.574 12.51-6.737 17.32-12.57 5.985-7.246 12.66-12.39 21.67-15 1.761 7.398-1.932 20.1 4.227 25.57 7.21 6.405 15.88-1.37 21.77-5.566 16.74-11.92 33.15-25.83 51-36v88h-346v-19c0-4.137 0.6858-9.296-0.08984-13.75v-90.23c0.175-3.149 0.08984-6.365 0.08984-9.02v-64-276zm68.87 26.32c-5.241-0.1793-10.44-0.03775-14.87 1.252-10.94 3.183-7.004 22.7-7.004 31.43v77c0 8.696-2.971 24.18 1.178 31.96 4.436 8.317 20.96 5.043 28.82 5.043h65c8.457 0 21.06 2.341 28.99-0.7422 10.61-4.125 7.006-22.32 7.006-31.26v-79c0-8.404 2.962-23.94-2.516-30.89-5.677-7.206-21.31-4.109-29.48-4.109h-62c-4.601 0-9.884-0.5004-15.12-0.6797zm218.5 19.62c-13.04-0.4827-26.95 1.062-39.35 1.062-7.917 0-18.41-1.797-25.99 0.6523-9.677 3.127-8.201 16.13 0.9863 18.78 16.75 4.829 40.56 0.5723 58 0.5723 6.602 0 15.87 1.622 21.89-1.572 7.959-4.219 5.811-16.6-2.896-18.2-4.06-0.7438-8.307-1.13-12.65-1.291zm-221.3 1.062h92v71l-18-9c3.193-6.101 6.185-12.92 5.789-20-2.3-41.16-65.47-41.38-66.9 0-0.264 7.602 2.266 13.15 5.113 20l-18 9v-71zm45.11 29.9c14.96-1.02 21.08 21.91 4.895 26.53-16.75 4.785-25.1-21.32-8-25.99 1.072-0.2933 2.108-0.4672 3.105-0.5352zm175.5 12.97c-13.79-0.5064-28.51 1.135-41.62 1.135-7.007 0-17.4-1.917-23.96 0.7422-9.09 3.686-6.52 16.24 1.957 18.69 17.03 4.91 41.26 0.5723 59 0.5723 6.563 0 16.09 1.708 21.79-2.229 6.995-4.832 4.465-16.03-3.787-17.54-4.292-0.7862-8.785-1.194-13.38-1.363zm-174.3 33.76c19.49-0.2305 38.87 9.329 44.69 29.37h-90c6.232-19.12 25.83-29.14 45.31-29.37zm342.5 5.848c7.399-0.2819 14.46 3.777 16.71 13.52 1.553 6.73-1.158 12.32-4.471 18l-31-19c3.626-7.619 11.37-12.24 18.77-12.52zm-168.1 4.389c-13.79-0.5064-28.51 1.135-41.62 1.135-7.054 0-17.36-1.888-23.98 0.7422-9.199 3.655-6.465 16.1 1.982 18.54 16.87 4.865 40.45 0.7227 58 0.7227 6.61 0 16.05 1.642 21.96-1.938 7.534-4.569 5.92-16.21-2.957-17.83-4.292-0.7862-8.785-1.194-13.38-1.363zm137.4 25.13 31 18c-3.662 15.59-19.2 32.65-28 46-19.6 29.74-39.02 59.75-57.81 90-7.1 11.43-14.43 22.78-21.86 34-2.234 3.373-4.874 10.06-8.662 11.87-3.271 1.557-7.13-1.852-9.67-3.531-6.894-4.56-13.78-9.313-21-13.33 5.751-18.05 22.05-36.08 32.31-52 19.3-29.96 38.65-59.91 57.75-90 8.523-13.43 19.15-26.63 25.95-41zm-150.4 39.96c-8.788 0.3075-17.62 1.043-25.64 1.043h-104-58c-9.135 0-20.1-1.642-29 0.5332-6.666 1.629-8.675 7.176-8.961 13.47-0.5734 12.61-0.05936 25.38-0.03906 38 9e-3 5.664-0.03214 13.43 6.094 16.14 4.739 2.101 11.82 0.8574 16.91 0.8574h38 134 42c5.324 0 13.12 1.403 17.96-1.178 6.206-3.31 5.045-10.91 5.045-16.82 0-11.98 6.215-47.19-9-50.52-7.832-1.713-16.58-1.835-25.36-1.527zm-205.6 21.04h220v30h-161-42c-3.929 0-12.15 1.545-15.4-1.027-4.653-3.685-1.602-23.27-1.602-28.97zm7.674 77.6c-6.025-0.00814-11.79 0.4773-16.66 2.051-9.677 3.127-8.2 16.12 0.9863 18.77 10.29 2.969 24.31 0.5723 35 0.5723h74c9.71 0 28.89 3.648 36.87-2.652 7.346-5.804 2.655-16.29-5.865-17.24-30.83-3.447-63.96-0.1094-95-0.1094-8.523 0-19.28-1.383-29.33-1.396zm41.31 42.24c-12.55-0.6062-26.34 1.154-37.99 1.154-6.243 0-15.11-1.591-20.98 0.7422-8.573 3.406-6.915 15.27 0.9863 18.23 14.68 5.489 38.37 1.031 54 1.031 5.917 0 13.64 1.23 18.89-2.09 7.308-4.615 5.473-15.56-2.9-17.52-3.78-0.8808-7.824-1.347-12.01-1.549zm184 21.15 22 13v2l-29 19 7-34z" />
	</g>
</svg>
